<?xml version="1.0" encoding="utf-8" standalone="no"?>
<!DOCTYPE svg PUBLIC "-//W3C//DTD SVG 1.1//EN"
  "http://www.w3.org/Graphics/SVG/1.1/DTD/svg11.dtd">
<!-- Created with matplotlib (http://matplotlib.org/) -->
<svg height="345.6pt" version="1.1" viewBox="0 0 460.8 345.6" width="460.8pt" xmlns="http://www.w3.org/2000/svg" xmlns:xlink="http://www.w3.org/1999/xlink">
 <defs>
  <style type="text/css">
*{stroke-linecap:butt;stroke-linejoin:round;}
  </style>
 </defs>
 <g id="figure_1">
  <g id="patch_1">
   <path d="M 0 345.6 
L 460.8 345.6 
L 460.8 0 
L 0 0 
z
" style="fill:#ffffff;"/>
  </g>
  <g id="axes_1">
   <g id="patch_2">
    <path clip-path="url(#p8844bc0d3c)" d="M 52.205455 171.238392 
L 92.192587 171.238392 
L 92.192587 131.251259 
L 52.205455 131.251259 
z
" style="fill:#b2b2b2;stroke:#000000;stroke-linejoin:miter;"/>
   </g>
   <g id="patch_3">
    <path clip-path="url(#p8844bc0d3c)" d="M 109.32993 171.238392 
L 149.317063 171.238392 
L 149.317063 131.251259 
L 109.32993 131.251259 
z
" style="fill:#b2b2b2;stroke:#000000;stroke-linejoin:miter;"/>
   </g>
   <g id="patch_4">
    <path clip-path="url(#p8844bc0d3c)" d="M 113.614266 175.522727 
L 153.601399 175.522727 
L 153.601399 135.535594 
L 113.614266 135.535594 
z
" style="fill:#808080;stroke:#000000;stroke-linejoin:miter;"/>
   </g>
   <g id="patch_5">
    <path clip-path="url(#p8844bc0d3c)" d="M 137.892168 160.527552 
C 138.081538 160.527552 138.263177 160.452315 138.397082 160.31841 
C 138.530986 160.184506 138.606224 160.002866 138.606224 159.813497 
C 138.606224 159.624127 138.530986 159.442487 138.397082 159.308583 
C 138.263177 159.174678 138.081538 159.099441 137.892168 159.099441 
C 137.702798 159.099441 137.521159 159.174678 137.387254 159.308583 
C 137.253349 159.442487 137.178112 159.624127 137.178112 159.813497 
C 137.178112 160.002866 137.253349 160.184506 137.387254 160.31841 
C 137.521159 160.452315 137.702798 160.527552 137.892168 160.527552 
z
" style="stroke:#000000;stroke-linejoin:miter;"/>
   </g>
   <g id="patch_6">
    <path clip-path="url(#p8844bc0d3c)" d="M 142.176503 164.811888 
C 142.365873 164.811888 142.547513 164.736651 142.681417 164.602746 
C 142.815322 164.468841 142.890559 164.287202 142.890559 164.097832 
C 142.890559 163.908462 142.815322 163.726823 142.681417 163.592918 
C 142.547513 163.459014 142.365873 163.383776 142.176503 163.383776 
C 141.987134 163.383776 141.805494 163.459014 141.67159 163.592918 
C 141.537685 163.726823 141.462448 163.908462 141.462448 164.097832 
C 141.462448 164.287202 141.537685 164.468841 141.67159 164.602746 
C 141.805494 164.736651 141.987134 164.811888 142.176503 164.811888 
z
" style="stroke:#000000;stroke-linejoin:miter;"/>
   </g>
   <g id="patch_7">
    <path clip-path="url(#p8844bc0d3c)" d="M 146.460839 169.096224 
C 146.650209 169.096224 146.831848 169.020986 146.965753 168.887082 
C 147.099658 168.753177 147.174895 168.571538 147.174895 168.382168 
C 147.174895 168.192798 147.099658 168.011159 146.965753 167.877254 
C 146.831848 167.743349 146.650209 167.668112 146.460839 167.668112 
C 146.271469 167.668112 146.08983 167.743349 145.955925 167.877254 
C 145.822021 168.011159 145.746783 168.192798 145.746783 168.382168 
C 145.746783 168.571538 145.822021 168.753177 145.955925 168.887082 
C 146.08983 169.020986 146.271469 169.096224 146.460839 169.096224 
z
" style="stroke:#000000;stroke-linejoin:miter;"/>
   </g>
   <g id="patch_8">
    <path clip-path="url(#p8844bc0d3c)" d="M 150.745175 173.380559 
C 150.934545 173.380559 151.116184 173.305322 151.250089 173.171417 
C 151.383993 173.037513 151.459231 172.855873 151.459231 172.666503 
C 151.459231 172.477134 151.383993 172.295494 151.250089 172.16159 
C 151.116184 172.027685 150.934545 171.952448 150.745175 171.952448 
C 150.555805 171.952448 150.374166 172.027685 150.240261 172.16159 
C 150.106356 172.295494 150.031119 172.477134 150.031119 172.666503 
C 150.031119 172.855873 150.106356 173.037513 150.240261 173.171417 
C 150.374166 173.305322 150.555805 173.380559 150.745175 173.380559 
z
" style="stroke:#000000;stroke-linejoin:miter;"/>
   </g>
   <g id="patch_9">
    <path clip-path="url(#p8844bc0d3c)" d="M 135.035944 196.944406 
L 175.023077 196.944406 
L 175.023077 156.957273 
L 135.035944 156.957273 
z
" style="fill:#b2b2b2;stroke:#000000;stroke-linejoin:miter;"/>
   </g>
   <g id="patch_10">
    <path clip-path="url(#p8844bc0d3c)" d="M 139.32028 201.228741 
L 179.307413 201.228741 
L 179.307413 161.241608 
L 139.32028 161.241608 
z
" style="fill:#808080;stroke:#000000;stroke-linejoin:miter;"/>
   </g>
   <g id="patch_11">
    <path clip-path="url(#p8844bc0d3c)" d="M 166.454406 151.244825 
L 186.447972 151.244825 
L 186.447972 131.251259 
L 166.454406 131.251259 
z
" style="fill:#b2b2b2;stroke:#000000;stroke-linejoin:miter;"/>
   </g>
   <g id="patch_12">
    <path clip-path="url(#p8844bc0d3c)" d="M 170.738741 155.529161 
L 190.732308 155.529161 
L 190.732308 135.535594 
L 170.738741 135.535594 
z
" style="fill:#808080;stroke:#000000;stroke-linejoin:miter;"/>
   </g>
   <g id="patch_13">
    <path clip-path="url(#p8844bc0d3c)" d="M 185.01986 150.530769 
C 185.20923 150.530769 185.390869 150.455532 185.524774 150.321627 
C 185.658679 150.187722 185.733916 150.006083 185.733916 149.816713 
C 185.733916 149.627343 185.658679 149.445704 185.524774 149.311799 
C 185.390869 149.177895 185.20923 149.102657 185.01986 149.102657 
C 184.83049 149.102657 184.648851 149.177895 184.514946 149.311799 
C 184.381042 149.445704 184.305804 149.627343 184.305804 149.816713 
C 184.305804 150.006083 184.381042 150.187722 184.514946 150.321627 
C 184.648851 150.455532 184.83049 150.530769 185.01986 150.530769 
z
" style="stroke:#000000;stroke-linejoin:miter;"/>
   </g>
   <g id="patch_14">
    <path clip-path="url(#p8844bc0d3c)" d="M 189.304196 154.815105 
C 189.493566 154.815105 189.675205 154.739867 189.80911 154.605963 
C 189.943014 154.472058 190.018252 154.290419 190.018252 154.101049 
C 190.018252 153.911679 189.943014 153.73004 189.80911 153.596135 
C 189.675205 153.46223 189.493566 153.386993 189.304196 153.386993 
C 189.114826 153.386993 188.933187 153.46223 188.799282 153.596135 
C 188.665377 153.73004 188.59014 153.911679 188.59014 154.101049 
C 188.59014 154.290419 188.665377 154.472058 188.799282 154.605963 
C 188.933187 154.739867 189.114826 154.815105 189.304196 154.815105 
z
" style="stroke:#000000;stroke-linejoin:miter;"/>
   </g>
   <g id="patch_15">
    <path clip-path="url(#p8844bc0d3c)" d="M 193.588531 159.099441 
C 193.777901 159.099441 193.959541 159.024203 194.093445 158.890298 
C 194.22735 158.756394 194.302587 158.574754 194.302587 158.385385 
C 194.302587 158.196015 194.22735 158.014376 194.093445 157.880471 
C 193.959541 157.746566 193.777901 157.671329 193.588531 157.671329 
C 193.399162 157.671329 193.217522 157.746566 193.083618 157.880471 
C 192.949713 158.014376 192.874476 158.196015 192.874476 158.385385 
C 192.874476 158.574754 192.949713 158.756394 193.083618 158.890298 
C 193.217522 159.024203 193.399162 159.099441 193.588531 159.099441 
z
" style="stroke:#000000;stroke-linejoin:miter;"/>
   </g>
   <g id="patch_16">
    <path clip-path="url(#p8844bc0d3c)" d="M 197.872867 163.383776 
C 198.062237 163.383776 198.243876 163.308539 198.377781 163.174634 
C 198.511686 163.040729 198.586923 162.85909 198.586923 162.66972 
C 198.586923 162.48035 198.511686 162.298711 198.377781 162.164806 
C 198.243876 162.030902 198.062237 161.955664 197.872867 161.955664 
C 197.683497 161.955664 197.501858 162.030902 197.367953 162.164806 
C 197.234049 162.298711 197.158811 162.48035 197.158811 162.66972 
C 197.158811 162.85909 197.234049 163.040729 197.367953 163.174634 
C 197.501858 163.308539 197.683497 163.383776 197.872867 163.383776 
z
" style="stroke:#000000;stroke-linejoin:miter;"/>
   </g>
   <g id="patch_17">
    <path clip-path="url(#p8844bc0d3c)" d="M 192.16042 176.950839 
L 212.153986 176.950839 
L 212.153986 156.957273 
L 192.16042 156.957273 
z
" style="fill:#b2b2b2;stroke:#000000;stroke-linejoin:miter;"/>
   </g>
   <g id="patch_18">
    <path clip-path="url(#p8844bc0d3c)" d="M 196.444755 181.235175 
L 216.438322 181.235175 
L 216.438322 161.241608 
L 196.444755 161.241608 
z
" style="fill:#808080;stroke:#000000;stroke-linejoin:miter;"/>
   </g>
   <g id="patch_19">
    <path clip-path="url(#p8844bc0d3c)" d="M 223.578881 151.244825 
L 243.572448 151.244825 
L 243.572448 131.251259 
L 223.578881 131.251259 
z
" style="fill:#b2b2b2;stroke:#000000;stroke-linejoin:miter;"/>
   </g>
   <g id="patch_20">
    <path clip-path="url(#p8844bc0d3c)" d="M 227.863217 155.529161 
L 247.856783 155.529161 
L 247.856783 135.535594 
L 227.863217 135.535594 
z
" style="fill:#808080;stroke:#000000;stroke-linejoin:miter;"/>
   </g>
   <g id="patch_21">
    <path clip-path="url(#p8844bc0d3c)" d="M 242.144336 150.530769 
C 242.333706 150.530769 242.515345 150.455532 242.649249 150.321627 
C 242.783154 150.187722 242.858392 150.006083 242.858392 149.816713 
C 242.858392 149.627343 242.783154 149.445704 242.649249 149.311799 
C 242.515345 149.177895 242.333706 149.102657 242.144336 149.102657 
C 241.954966 149.102657 241.773327 149.177895 241.639422 149.311799 
C 241.505517 149.445704 241.43028 149.627343 241.43028 149.816713 
C 241.43028 150.006083 241.505517 150.187722 241.639422 150.321627 
C 241.773327 150.455532 241.954966 150.530769 242.144336 150.530769 
z
" style="stroke:#000000;stroke-linejoin:miter;"/>
   </g>
   <g id="patch_22">
    <path clip-path="url(#p8844bc0d3c)" d="M 246.428671 154.815105 
C 246.618041 154.815105 246.79968 154.739867 246.933585 154.605963 
C 247.06749 154.472058 247.142727 154.290419 247.142727 154.101049 
C 247.142727 153.911679 247.06749 153.73004 246.933585 153.596135 
C 246.79968 153.46223 246.618041 153.386993 246.428671 153.386993 
C 246.239301 153.386993 246.057662 153.46223 245.923758 153.596135 
C 245.789853 153.73004 245.714615 153.911679 245.714615 154.101049 
C 245.714615 154.290419 245.789853 154.472058 245.923758 154.605963 
C 246.057662 154.739867 246.239301 154.815105 246.428671 154.815105 
z
" style="stroke:#000000;stroke-linejoin:miter;"/>
   </g>
   <g id="patch_23">
    <path clip-path="url(#p8844bc0d3c)" d="M 250.713007 159.099441 
C 250.902377 159.099441 251.084016 159.024203 251.217921 158.890298 
C 251.351825 158.756394 251.427063 158.574754 251.427063 158.385385 
C 251.427063 158.196015 251.351825 158.014376 251.217921 157.880471 
C 251.084016 157.746566 250.902377 157.671329 250.713007 157.671329 
C 250.523637 157.671329 250.341998 157.746566 250.208093 157.880471 
C 250.074188 158.014376 249.998951 158.196015 249.998951 158.385385 
C 249.998951 158.574754 250.074188 158.756394 250.208093 158.890298 
C 250.341998 159.024203 250.523637 159.099441 250.713007 159.099441 
z
" style="stroke:#000000;stroke-linejoin:miter;"/>
   </g>
   <g id="patch_24">
    <path clip-path="url(#p8844bc0d3c)" d="M 254.997343 163.383776 
C 255.186713 163.383776 255.368352 163.308539 255.502256 163.174634 
C 255.636161 163.040729 255.711399 162.85909 255.711399 162.66972 
C 255.711399 162.48035 255.636161 162.298711 255.502256 162.164806 
C 255.368352 162.030902 255.186713 161.955664 254.997343 161.955664 
C 254.807973 161.955664 254.626334 162.030902 254.492429 162.164806 
C 254.358524 162.298711 254.283287 162.48035 254.283287 162.66972 
C 254.283287 162.85909 254.358524 163.040729 254.492429 163.174634 
C 254.626334 163.308539 254.807973 163.383776 254.997343 163.383776 
z
" style="stroke:#000000;stroke-linejoin:miter;"/>
   </g>
   <g id="patch_25">
    <path clip-path="url(#p8844bc0d3c)" d="M 249.284895 176.950839 
L 269.278462 176.950839 
L 269.278462 156.957273 
L 249.284895 156.957273 
z
" style="fill:#b2b2b2;stroke:#000000;stroke-linejoin:miter;"/>
   </g>
   <g id="patch_26">
    <path clip-path="url(#p8844bc0d3c)" d="M 253.569231 181.235175 
L 273.562797 181.235175 
L 273.562797 161.241608 
L 253.569231 161.241608 
z
" style="fill:#808080;stroke:#000000;stroke-linejoin:miter;"/>
   </g>
   <g id="patch_27">
    <path clip-path="url(#p8844bc0d3c)" d="M 280.703357 141.248042 
L 290.70014 141.248042 
L 290.70014 131.251259 
L 280.703357 131.251259 
z
" style="fill:#b2b2b2;stroke:#000000;stroke-linejoin:miter;"/>
   </g>
   <g id="patch_28">
    <path clip-path="url(#p8844bc0d3c)" d="M 284.987692 145.532378 
L 294.984476 145.532378 
L 294.984476 135.535594 
L 284.987692 135.535594 
z
" style="fill:#808080;stroke:#000000;stroke-linejoin:miter;"/>
   </g>
   <g id="patch_29">
    <path clip-path="url(#p8844bc0d3c)" d="M 294.27042 145.532378 
C 294.459789 145.532378 294.641429 145.45714 294.775333 145.323235 
C 294.909238 145.189331 294.984476 145.007692 294.984476 144.818322 
C 294.984476 144.628952 294.909238 144.447313 294.775333 144.313408 
C 294.641429 144.179503 294.459789 144.104266 294.27042 144.104266 
C 294.08105 144.104266 293.89941 144.179503 293.765506 144.313408 
C 293.631601 144.447313 293.556364 144.628952 293.556364 144.818322 
C 293.556364 145.007692 293.631601 145.189331 293.765506 145.323235 
C 293.89941 145.45714 294.08105 145.532378 294.27042 145.532378 
z
" style="stroke:#000000;stroke-linejoin:miter;"/>
   </g>
   <g id="patch_30">
    <path clip-path="url(#p8844bc0d3c)" d="M 298.554755 149.816713 
C 298.744125 149.816713 298.925764 149.741476 299.059669 149.607571 
C 299.193574 149.473666 299.268811 149.292027 299.268811 149.102657 
C 299.268811 148.913287 299.193574 148.731648 299.059669 148.597744 
C 298.925764 148.463839 298.744125 148.388601 298.554755 148.388601 
C 298.365385 148.388601 298.183746 148.463839 298.049841 148.597744 
C 297.915937 148.731648 297.840699 148.913287 297.840699 149.102657 
C 297.840699 149.292027 297.915937 149.473666 298.049841 149.607571 
C 298.183746 149.741476 298.365385 149.816713 298.554755 149.816713 
z
" style="stroke:#000000;stroke-linejoin:miter;"/>
   </g>
   <g id="patch_31">
    <path clip-path="url(#p8844bc0d3c)" d="M 302.839091 154.101049 
C 303.028461 154.101049 303.2101 154.025812 303.344005 153.891907 
C 303.477909 153.758002 303.553147 153.576363 303.553147 153.386993 
C 303.553147 153.197623 303.477909 153.015984 303.344005 152.882079 
C 303.2101 152.748175 303.028461 152.672937 302.839091 152.672937 
C 302.649721 152.672937 302.468082 152.748175 302.334177 152.882079 
C 302.200272 153.015984 302.125035 153.197623 302.125035 153.386993 
C 302.125035 153.576363 302.200272 153.758002 302.334177 153.891907 
C 302.468082 154.025812 302.649721 154.101049 302.839091 154.101049 
z
" style="stroke:#000000;stroke-linejoin:miter;"/>
   </g>
   <g id="patch_32">
    <path clip-path="url(#p8844bc0d3c)" d="M 307.123427 158.385385 
C 307.312796 158.385385 307.494436 158.310147 307.62834 158.176242 
C 307.762245 158.042338 307.837483 157.860699 307.837483 157.671329 
C 307.837483 157.481959 307.762245 157.30032 307.62834 157.166415 
C 307.494436 157.03251 307.312796 156.957273 307.123427 156.957273 
C 306.934057 156.957273 306.752417 157.03251 306.618513 157.166415 
C 306.484608 157.30032 306.409371 157.481959 306.409371 157.671329 
C 306.409371 157.860699 306.484608 158.042338 306.618513 158.176242 
C 306.752417 158.310147 306.934057 158.385385 307.123427 158.385385 
z
" style="stroke:#000000;stroke-linejoin:miter;"/>
   </g>
   <g id="patch_33">
    <path clip-path="url(#p8844bc0d3c)" d="M 306.409371 166.954056 
L 316.406154 166.954056 
L 316.406154 156.957273 
L 306.409371 156.957273 
z
" style="fill:#b2b2b2;stroke:#000000;stroke-linejoin:miter;"/>
   </g>
   <g id="patch_34">
    <path clip-path="url(#p8844bc0d3c)" d="M 310.693706 171.238392 
L 320.69049 171.238392 
L 320.69049 161.241608 
L 310.693706 161.241608 
z
" style="fill:#808080;stroke:#000000;stroke-linejoin:miter;"/>
   </g>
   <g id="patch_35">
    <path clip-path="url(#p8844bc0d3c)" d="M 65.344084 147.674545 
L 72.484643 147.674545 
L 72.484643 154.815105 
L 65.344084 154.815105 
z
" style="fill:#4c4c4c;stroke:#000000;stroke-linejoin:miter;"/>
   </g>
   <g id="patch_36">
    <path clip-path="url(#p8844bc0d3c)" d="M 154.172643 190.946336 
L 157.028867 190.946336 
L 157.028867 193.802559 
L 154.172643 193.802559 
z
" style="fill:#4c4c4c;stroke:#000000;stroke-linejoin:miter;"/>
   </g>
   <g id="patch_37">
    <path clip-path="url(#p8844bc0d3c)" d="M 201.585958 167.668112 
L 208.726517 167.668112 
L 208.726517 174.808671 
L 201.585958 174.808671 
z
" style="fill:#4c4c4c;stroke:#000000;stroke-linejoin:miter;"/>
   </g>
   <g id="patch_38">
    <path clip-path="url(#p8844bc0d3c)" d="M 260.424168 174.951483 
L 263.280392 174.951483 
L 263.280392 177.807706 
L 260.424168 177.807706 
z
" style="fill:#4c4c4c;stroke:#000000;stroke-linejoin:miter;"/>
   </g>
   <g id="patch_39">
    <path clip-path="url(#p8844bc0d3c)" d="M 337.827832 134.107483 
L 340.684056 134.107483 
L 340.684056 131.251259 
L 337.827832 131.251259 
z
" style="fill:#b2b2b2;stroke:#000000;stroke-linejoin:miter;"/>
   </g>
   <g id="patch_40">
    <path clip-path="url(#p8844bc0d3c)" d="M 340.684056 136.963706 
L 343.54028 136.963706 
L 343.54028 134.107483 
L 340.684056 134.107483 
z
" style="fill:#808080;stroke:#000000;stroke-linejoin:miter;"/>
   </g>
   <g id="patch_41">
    <path clip-path="url(#p8844bc0d3c)" d="M 343.54028 139.81993 
L 346.396503 139.81993 
L 346.396503 136.963706 
L 343.54028 136.963706 
z
" style="fill:#b2b2b2;stroke:#000000;stroke-linejoin:miter;"/>
   </g>
   <g id="patch_42">
    <path clip-path="url(#p8844bc0d3c)" d="M 346.396503 142.676154 
L 349.252727 142.676154 
L 349.252727 139.81993 
L 346.396503 139.81993 
z
" style="fill:#808080;stroke:#000000;stroke-linejoin:miter;"/>
   </g>
   <g id="patch_43">
    <path clip-path="url(#p8844bc0d3c)" d="M 349.252727 145.532378 
L 352.108951 145.532378 
L 352.108951 142.676154 
L 349.252727 142.676154 
z
" style="fill:#b2b2b2;stroke:#000000;stroke-linejoin:miter;"/>
   </g>
   <g id="patch_44">
    <path clip-path="url(#p8844bc0d3c)" d="M 352.108951 148.388601 
L 354.965175 148.388601 
L 354.965175 145.532378 
L 352.108951 145.532378 
z
" style="fill:#808080;stroke:#000000;stroke-linejoin:miter;"/>
   </g>
   <g id="patch_45">
    <path clip-path="url(#p8844bc0d3c)" d="M 354.965175 151.244825 
L 357.821399 151.244825 
L 357.821399 148.388601 
L 354.965175 148.388601 
z
" style="fill:#b2b2b2;stroke:#000000;stroke-linejoin:miter;"/>
   </g>
   <g id="patch_46">
    <path clip-path="url(#p8844bc0d3c)" d="M 357.821399 154.101049 
L 360.677622 154.101049 
L 360.677622 151.244825 
L 357.821399 151.244825 
z
" style="fill:#808080;stroke:#000000;stroke-linejoin:miter;"/>
   </g>
   <g id="patch_47">
    <path clip-path="url(#p8844bc0d3c)" d="M 362.105734 156.243217 
C 362.295104 156.243217 362.476743 156.167979 362.610648 156.034075 
C 362.744553 155.90017 362.81979 155.718531 362.81979 155.529161 
C 362.81979 155.339791 362.744553 155.158152 362.610648 155.024247 
C 362.476743 154.890342 362.295104 154.815105 362.105734 154.815105 
C 361.916364 154.815105 361.734725 154.890342 361.60082 155.024247 
C 361.466916 155.158152 361.391678 155.339791 361.391678 155.529161 
C 361.391678 155.718531 361.466916 155.90017 361.60082 156.034075 
C 361.734725 156.167979 361.916364 156.243217 362.105734 156.243217 
z
" style="stroke:#000000;stroke-linejoin:miter;"/>
   </g>
   <g id="patch_48">
    <path clip-path="url(#p8844bc0d3c)" d="M 364.961958 159.099441 
C 365.151328 159.099441 365.332967 159.024203 365.466872 158.890298 
C 365.600777 158.756394 365.676014 158.574754 365.676014 158.385385 
C 365.676014 158.196015 365.600777 158.014376 365.466872 157.880471 
C 365.332967 157.746566 365.151328 157.671329 364.961958 157.671329 
C 364.772588 157.671329 364.590949 157.746566 364.457044 157.880471 
C 364.32314 158.014376 364.247902 158.196015 364.247902 158.385385 
C 364.247902 158.574754 364.32314 158.756394 364.457044 158.890298 
C 364.590949 159.024203 364.772588 159.099441 364.961958 159.099441 
z
" style="stroke:#000000;stroke-linejoin:miter;"/>
   </g>
   <g id="patch_49">
    <path clip-path="url(#p8844bc0d3c)" d="M 367.818182 161.955664 
C 368.007552 161.955664 368.189191 161.880427 368.323096 161.746522 
C 368.457 161.612617 368.532238 161.430978 368.532238 161.241608 
C 368.532238 161.052239 368.457 160.870599 368.323096 160.736695 
C 368.189191 160.60279 368.007552 160.527552 367.818182 160.527552 
C 367.628812 160.527552 367.447173 160.60279 367.313268 160.736695 
C 367.179363 160.870599 367.104126 161.052239 367.104126 161.241608 
C 367.104126 161.430978 367.179363 161.612617 367.313268 161.746522 
C 367.447173 161.880427 367.628812 161.955664 367.818182 161.955664 
z
" style="stroke:#000000;stroke-linejoin:miter;"/>
   </g>
   <g id="patch_50">
    <path clip-path="url(#p8844bc0d3c)" d="M 370.674406 164.811888 
C 370.863775 164.811888 371.045415 164.736651 371.179319 164.602746 
C 371.313224 164.468841 371.388462 164.287202 371.388462 164.097832 
C 371.388462 163.908462 371.313224 163.726823 371.179319 163.592918 
C 371.045415 163.459014 370.863775 163.383776 370.674406 163.383776 
C 370.485036 163.383776 370.303396 163.459014 370.169492 163.592918 
C 370.035587 163.726823 369.96035 163.908462 369.96035 164.097832 
C 369.96035 164.287202 370.035587 164.468841 370.169492 164.602746 
C 370.303396 164.736651 370.485036 164.811888 370.674406 164.811888 
z
" style="stroke:#000000;stroke-linejoin:miter;"/>
   </g>
   <g id="patch_51">
    <path clip-path="url(#p8844bc0d3c)" d="M 372.102517 168.382168 
L 374.958741 168.382168 
L 374.958741 165.525944 
L 372.102517 165.525944 
z
" style="fill:#b2b2b2;stroke:#000000;stroke-linejoin:miter;"/>
   </g>
   <g id="patch_52">
    <path clip-path="url(#p8844bc0d3c)" d="M 374.958741 171.238392 
L 377.814965 171.238392 
L 377.814965 168.382168 
L 374.958741 168.382168 
z
" style="fill:#808080;stroke:#000000;stroke-linejoin:miter;"/>
   </g>
   <g id="patch_53">
    <path clip-path="url(#p8844bc0d3c)" d="M 377.814965 174.094615 
L 380.671189 174.094615 
L 380.671189 171.238392 
L 377.814965 171.238392 
z
" style="fill:#b2b2b2;stroke:#000000;stroke-linejoin:miter;"/>
   </g>
   <g id="patch_54">
    <path clip-path="url(#p8844bc0d3c)" d="M 380.671189 176.950839 
L 383.527413 176.950839 
L 383.527413 174.094615 
L 380.671189 174.094615 
z
" style="fill:#808080;stroke:#000000;stroke-linejoin:miter;"/>
   </g>
   <g id="patch_55">
    <path clip-path="url(#p8844bc0d3c)" d="M 383.527413 179.807063 
L 386.383636 179.807063 
L 386.383636 176.950839 
L 383.527413 176.950839 
z
" style="fill:#b2b2b2;stroke:#000000;stroke-linejoin:miter;"/>
   </g>
   <g id="patch_56">
    <path clip-path="url(#p8844bc0d3c)" d="M 386.383636 182.663287 
L 389.23986 182.663287 
L 389.23986 179.807063 
L 386.383636 179.807063 
z
" style="fill:#808080;stroke:#000000;stroke-linejoin:miter;"/>
   </g>
   <g id="patch_57">
    <path clip-path="url(#p8844bc0d3c)" d="M 389.23986 185.51951 
L 392.096084 185.51951 
L 392.096084 182.663287 
L 389.23986 182.663287 
z
" style="fill:#b2b2b2;stroke:#000000;stroke-linejoin:miter;"/>
   </g>
   <g id="patch_58">
    <path clip-path="url(#p8844bc0d3c)" d="M 392.096084 188.375734 
L 394.952308 188.375734 
L 394.952308 185.51951 
L 392.096084 185.51951 
z
" style="fill:#808080;stroke:#000000;stroke-linejoin:miter;"/>
   </g>
   <g id="patch_59">
    <path clip-path="url(#p8844bc0d3c)" d="M 394.952308 134.107483 
L 397.808531 134.107483 
L 397.808531 131.251259 
L 394.952308 131.251259 
z
" style="fill:#b2b2b2;stroke:#000000;stroke-linejoin:miter;"/>
   </g>
   <g id="patch_60">
    <path clip-path="url(#p8844bc0d3c)" d="M 397.808531 136.963706 
L 400.664755 136.963706 
L 400.664755 134.107483 
L 397.808531 134.107483 
z
" style="fill:#808080;stroke:#000000;stroke-linejoin:miter;"/>
   </g>
   <g id="patch_61">
    <path clip-path="url(#p8844bc0d3c)" d="M 400.664755 139.81993 
L 403.520979 139.81993 
L 403.520979 136.963706 
L 400.664755 136.963706 
z
" style="fill:#b2b2b2;stroke:#000000;stroke-linejoin:miter;"/>
   </g>
   <g id="patch_62">
    <path clip-path="url(#p8844bc0d3c)" d="M 403.520979 142.676154 
L 406.377203 142.676154 
L 406.377203 139.81993 
L 403.520979 139.81993 
z
" style="fill:#808080;stroke:#000000;stroke-linejoin:miter;"/>
   </g>
   <g id="patch_63">
    <path clip-path="url(#p8844bc0d3c)" d="M 406.377203 145.532378 
L 409.233427 145.532378 
L 409.233427 142.676154 
L 406.377203 142.676154 
z
" style="fill:#b2b2b2;stroke:#000000;stroke-linejoin:miter;"/>
   </g>
   <g id="patch_64">
    <path clip-path="url(#p8844bc0d3c)" d="M 409.233427 148.388601 
L 412.08965 148.388601 
L 412.08965 145.532378 
L 409.233427 145.532378 
z
" style="fill:#808080;stroke:#000000;stroke-linejoin:miter;"/>
   </g>
   <g id="patch_65">
    <path clip-path="url(#p8844bc0d3c)" d="M 412.08965 151.244825 
L 414.945874 151.244825 
L 414.945874 148.388601 
L 412.08965 148.388601 
z
" style="fill:#b2b2b2;stroke:#000000;stroke-linejoin:miter;"/>
   </g>
   <g id="patch_66">
    <path clip-path="url(#p8844bc0d3c)" d="M 414.945874 154.101049 
L 417.802098 154.101049 
L 417.802098 151.244825 
L 414.945874 151.244825 
z
" style="fill:#808080;stroke:#000000;stroke-linejoin:miter;"/>
   </g>
   <g id="patch_67">
    <path clip-path="url(#p8844bc0d3c)" d="M 417.802098 156.957273 
L 420.658322 156.957273 
L 420.658322 154.101049 
L 417.802098 154.101049 
z
" style="fill:#b2b2b2;stroke:#000000;stroke-linejoin:miter;"/>
   </g>
   <g id="patch_68">
    <path clip-path="url(#p8844bc0d3c)" d="M 420.658322 159.813497 
L 423.514545 159.813497 
L 423.514545 156.957273 
L 420.658322 156.957273 
z
" style="fill:#808080;stroke:#000000;stroke-linejoin:miter;"/>
   </g>
   <g id="line2d_1">
    <path clip-path="url(#p8844bc0d3c)" d="M 65.344084 147.674545 
L 155.315133 181.235175 
" style="fill:none;stroke:#262626;stroke-linecap:square;stroke-width:1.5;"/>
   </g>
   <g id="line2d_2">
    <path clip-path="url(#p8844bc0d3c)" d="M 72.484643 147.674545 
L 155.315133 181.235175 
" style="fill:none;stroke:#262626;stroke-linecap:square;stroke-width:1.5;"/>
   </g>
   <g id="line2d_3">
    <path clip-path="url(#p8844bc0d3c)" d="M 65.344084 154.815105 
L 155.315133 181.235175 
" style="fill:none;stroke:#262626;stroke-linecap:square;stroke-width:1.5;"/>
   </g>
   <g id="line2d_4">
    <path clip-path="url(#p8844bc0d3c)" d="M 72.484643 154.815105 
L 155.315133 181.235175 
" style="fill:none;stroke:#262626;stroke-linecap:square;stroke-width:1.5;"/>
   </g>
   <g id="line2d_5">
    <path clip-path="url(#p8844bc0d3c)" d="M 154.172643 190.946336 
L 204.442182 177.236462 
" style="fill:none;stroke:#262626;stroke-linecap:square;stroke-width:1.5;"/>
   </g>
   <g id="line2d_6">
    <path clip-path="url(#p8844bc0d3c)" d="M 157.028867 190.946336 
L 204.442182 177.236462 
" style="fill:none;stroke:#262626;stroke-linecap:square;stroke-width:1.5;"/>
   </g>
   <g id="line2d_7">
    <path clip-path="url(#p8844bc0d3c)" d="M 154.172643 193.802559 
L 204.442182 177.236462 
" style="fill:none;stroke:#262626;stroke-linecap:square;stroke-width:1.5;"/>
   </g>
   <g id="line2d_8">
    <path clip-path="url(#p8844bc0d3c)" d="M 157.028867 193.802559 
L 204.442182 177.236462 
" style="fill:none;stroke:#262626;stroke-linecap:square;stroke-width:1.5;"/>
   </g>
   <g id="line2d_9">
    <path clip-path="url(#p8844bc0d3c)" d="M 201.585958 167.668112 
L 261.566657 171.238392 
" style="fill:none;stroke:#262626;stroke-linecap:square;stroke-width:1.5;"/>
   </g>
   <g id="line2d_10">
    <path clip-path="url(#p8844bc0d3c)" d="M 208.726517 167.668112 
L 261.566657 171.238392 
" style="fill:none;stroke:#262626;stroke-linecap:square;stroke-width:1.5;"/>
   </g>
   <g id="line2d_11">
    <path clip-path="url(#p8844bc0d3c)" d="M 201.585958 174.808671 
L 261.566657 171.238392 
" style="fill:none;stroke:#262626;stroke-linecap:square;stroke-width:1.5;"/>
   </g>
   <g id="line2d_12">
    <path clip-path="url(#p8844bc0d3c)" d="M 208.726517 174.808671 
L 261.566657 171.238392 
" style="fill:none;stroke:#262626;stroke-linecap:square;stroke-width:1.5;"/>
   </g>
   <g id="line2d_13">
    <path clip-path="url(#p8844bc0d3c)" d="M 260.424168 174.951483 
L 314.69242 169.239035 
" style="fill:none;stroke:#262626;stroke-linecap:square;stroke-width:1.5;"/>
   </g>
   <g id="line2d_14">
    <path clip-path="url(#p8844bc0d3c)" d="M 263.280392 174.951483 
L 314.69242 169.239035 
" style="fill:none;stroke:#262626;stroke-linecap:square;stroke-width:1.5;"/>
   </g>
   <g id="line2d_15">
    <path clip-path="url(#p8844bc0d3c)" d="M 260.424168 177.807706 
L 314.69242 169.239035 
" style="fill:none;stroke:#262626;stroke-linecap:square;stroke-width:1.5;"/>
   </g>
   <g id="line2d_16">
    <path clip-path="url(#p8844bc0d3c)" d="M 263.280392 177.807706 
L 314.69242 169.239035 
" style="fill:none;stroke:#262626;stroke-linecap:square;stroke-width:1.5;"/>
   </g>
   <g id="text_1">
    <!-- Inputs -->
    <defs>
     <path d="M 9.8125 72.90625 
L 19.671875 72.90625 
L 19.671875 0 
L 9.8125 0 
z
" id="DejaVuSans-49"/>
     <path d="M 54.890625 33.015625 
L 54.890625 0 
L 45.90625 0 
L 45.90625 32.71875 
Q 45.90625 40.484375 42.875 44.328125 
Q 39.84375 48.1875 33.796875 48.1875 
Q 26.515625 48.1875 22.3125 43.546875 
Q 18.109375 38.921875 18.109375 30.90625 
L 18.109375 0 
L 9.078125 0 
L 9.078125 54.6875 
L 18.109375 54.6875 
L 18.109375 46.1875 
Q 21.34375 51.125 25.703125 53.5625 
Q 30.078125 56 35.796875 56 
Q 45.21875 56 50.046875 50.171875 
Q 54.890625 44.34375 54.890625 33.015625 
z
" id="DejaVuSans-6e"/>
     <path d="M 18.109375 8.203125 
L 18.109375 -20.796875 
L 9.078125 -20.796875 
L 9.078125 54.6875 
L 18.109375 54.6875 
L 18.109375 46.390625 
Q 20.953125 51.265625 25.265625 53.625 
Q 29.59375 56 35.59375 56 
Q 45.5625 56 51.78125 48.09375 
Q 58.015625 40.1875 58.015625 27.296875 
Q 58.015625 14.40625 51.78125 6.484375 
Q 45.5625 -1.421875 35.59375 -1.421875 
Q 29.59375 -1.421875 25.265625 0.953125 
Q 20.953125 3.328125 18.109375 8.203125 
z
M 48.6875 27.296875 
Q 48.6875 37.203125 44.609375 42.84375 
Q 40.53125 48.484375 33.40625 48.484375 
Q 26.265625 48.484375 22.1875 42.84375 
Q 18.109375 37.203125 18.109375 27.296875 
Q 18.109375 17.390625 22.1875 11.75 
Q 26.265625 6.109375 33.40625 6.109375 
Q 40.53125 6.109375 44.609375 11.75 
Q 48.6875 17.390625 48.6875 27.296875 
z
" id="DejaVuSans-70"/>
     <path d="M 8.5 21.578125 
L 8.5 54.6875 
L 17.484375 54.6875 
L 17.484375 21.921875 
Q 17.484375 14.15625 20.5 10.265625 
Q 23.53125 6.390625 29.59375 6.390625 
Q 36.859375 6.390625 41.078125 11.03125 
Q 45.3125 15.671875 45.3125 23.6875 
L 45.3125 54.6875 
L 54.296875 54.6875 
L 54.296875 0 
L 45.3125 0 
L 45.3125 8.40625 
Q 42.046875 3.421875 37.71875 1 
Q 33.40625 -1.421875 27.6875 -1.421875 
Q 18.265625 -1.421875 13.375 4.4375 
Q 8.5 10.296875 8.5 21.578125 
z
M 31.109375 56 
z
" id="DejaVuSans-75"/>
     <path d="M 18.3125 70.21875 
L 18.3125 54.6875 
L 36.8125 54.6875 
L 36.8125 47.703125 
L 18.3125 47.703125 
L 18.3125 18.015625 
Q 18.3125 11.328125 20.140625 9.421875 
Q 21.96875 7.515625 27.59375 7.515625 
L 36.8125 7.515625 
L 36.8125 0 
L 27.59375 0 
Q 17.1875 0 13.234375 3.875 
Q 9.28125 7.765625 9.28125 18.015625 
L 9.28125 47.703125 
L 2.6875 47.703125 
L 2.6875 54.6875 
L 9.28125 54.6875 
L 9.28125 70.21875 
z
" id="DejaVuSans-74"/>
     <path d="M 44.28125 53.078125 
L 44.28125 44.578125 
Q 40.484375 46.53125 36.375 47.5 
Q 32.28125 48.484375 27.875 48.484375 
Q 21.1875 48.484375 17.84375 46.4375 
Q 14.5 44.390625 14.5 40.28125 
Q 14.5 37.15625 16.890625 35.375 
Q 19.28125 33.59375 26.515625 31.984375 
L 29.59375 31.296875 
Q 39.15625 29.25 43.1875 25.515625 
Q 47.21875 21.78125 47.21875 15.09375 
Q 47.21875 7.46875 41.1875 3.015625 
Q 35.15625 -1.421875 24.609375 -1.421875 
Q 20.21875 -1.421875 15.453125 -0.5625 
Q 10.6875 0.296875 5.421875 2 
L 5.421875 11.28125 
Q 10.40625 8.6875 15.234375 7.390625 
Q 20.0625 6.109375 24.8125 6.109375 
Q 31.15625 6.109375 34.5625 8.28125 
Q 37.984375 10.453125 37.984375 14.40625 
Q 37.984375 18.0625 35.515625 20.015625 
Q 33.0625 21.96875 24.703125 23.78125 
L 21.578125 24.515625 
Q 13.234375 26.265625 9.515625 29.90625 
Q 5.8125 33.546875 5.8125 39.890625 
Q 5.8125 47.609375 11.28125 51.796875 
Q 16.75 56 26.8125 56 
Q 31.78125 56 36.171875 55.265625 
Q 40.578125 54.546875 44.28125 53.078125 
z
" id="DejaVuSans-73"/>
    </defs>
    <g transform="translate(52.205455 116.580561)scale(0.08 -0.08)">
     <use xlink:href="#DejaVuSans-49"/>
     <use x="29.492188" xlink:href="#DejaVuSans-6e"/>
     <use x="92.871094" xlink:href="#DejaVuSans-70"/>
     <use x="156.347656" xlink:href="#DejaVuSans-75"/>
     <use x="219.726562" xlink:href="#DejaVuSans-74"/>
     <use x="258.935547" xlink:href="#DejaVuSans-73"/>
    </g>
    <!-- 1@28x28 -->
    <defs>
     <path d="M 12.40625 8.296875 
L 28.515625 8.296875 
L 28.515625 63.921875 
L 10.984375 60.40625 
L 10.984375 69.390625 
L 28.421875 72.90625 
L 38.28125 72.90625 
L 38.28125 8.296875 
L 54.390625 8.296875 
L 54.390625 0 
L 12.40625 0 
z
" id="DejaVuSans-31"/>
     <path d="M 37.203125 26.21875 
Q 37.203125 19.234375 40.671875 15.25 
Q 44.140625 11.28125 50.203125 11.28125 
Q 56.203125 11.28125 59.640625 15.28125 
Q 63.09375 19.28125 63.09375 26.21875 
Q 63.09375 33.0625 59.578125 37.078125 
Q 56.0625 41.109375 50.09375 41.109375 
Q 44.1875 41.109375 40.6875 37.109375 
Q 37.203125 33.109375 37.203125 26.21875 
z
M 63.8125 11.625 
Q 60.890625 7.859375 57.109375 6.078125 
Q 53.328125 4.296875 48.296875 4.296875 
Q 39.890625 4.296875 34.640625 10.375 
Q 29.390625 16.453125 29.390625 26.21875 
Q 29.390625 35.984375 34.65625 42.078125 
Q 39.9375 48.1875 48.296875 48.1875 
Q 53.328125 48.1875 57.125 46.359375 
Q 60.9375 44.53125 63.8125 40.828125 
L 63.8125 47.21875 
L 70.796875 47.21875 
L 70.796875 11.28125 
Q 77.9375 12.359375 81.953125 17.796875 
Q 85.984375 23.25 85.984375 31.890625 
Q 85.984375 37.109375 84.4375 41.703125 
Q 82.90625 46.296875 79.78125 50.203125 
Q 74.703125 56.59375 67.40625 59.984375 
Q 60.109375 63.375 51.515625 63.375 
Q 45.515625 63.375 39.984375 61.78125 
Q 34.46875 60.203125 29.78125 57.078125 
Q 22.125 52.09375 17.796875 44.015625 
Q 13.484375 35.9375 13.484375 26.515625 
Q 13.484375 18.75 16.28125 11.953125 
Q 19.09375 5.171875 24.421875 0 
Q 29.546875 -5.078125 36.28125 -7.734375 
Q 43.015625 -10.40625 50.6875 -10.40625 
Q 56.984375 -10.40625 63.0625 -8.28125 
Q 69.140625 -6.15625 74.21875 -2.203125 
L 78.609375 -7.625 
Q 72.515625 -12.359375 65.3125 -14.875 
Q 58.109375 -17.390625 50.6875 -17.390625 
Q 41.65625 -17.390625 33.640625 -14.1875 
Q 25.640625 -10.984375 19.390625 -4.890625 
Q 13.140625 1.21875 9.859375 9.25 
Q 6.59375 17.28125 6.59375 26.515625 
Q 6.59375 35.40625 9.90625 43.453125 
Q 13.234375 51.515625 19.390625 57.625 
Q 25.6875 63.8125 33.9375 67.109375 
Q 42.1875 70.40625 51.421875 70.40625 
Q 61.765625 70.40625 70.625 66.15625 
Q 79.5 61.921875 85.5 54.109375 
Q 89.15625 49.3125 91.078125 43.703125 
Q 93.015625 38.09375 93.015625 32.078125 
Q 93.015625 19.234375 85.25 11.8125 
Q 77.484375 4.390625 63.8125 4.109375 
z
" id="DejaVuSans-40"/>
     <path d="M 19.1875 8.296875 
L 53.609375 8.296875 
L 53.609375 0 
L 7.328125 0 
L 7.328125 8.296875 
Q 12.9375 14.109375 22.625 23.890625 
Q 32.328125 33.6875 34.8125 36.53125 
Q 39.546875 41.84375 41.421875 45.53125 
Q 43.3125 49.21875 43.3125 52.78125 
Q 43.3125 58.59375 39.234375 62.25 
Q 35.15625 65.921875 28.609375 65.921875 
Q 23.96875 65.921875 18.8125 64.3125 
Q 13.671875 62.703125 7.8125 59.421875 
L 7.8125 69.390625 
Q 13.765625 71.78125 18.9375 73 
Q 24.125 74.21875 28.421875 74.21875 
Q 39.75 74.21875 46.484375 68.546875 
Q 53.21875 62.890625 53.21875 53.421875 
Q 53.21875 48.921875 51.53125 44.890625 
Q 49.859375 40.875 45.40625 35.40625 
Q 44.1875 33.984375 37.640625 27.21875 
Q 31.109375 20.453125 19.1875 8.296875 
z
" id="DejaVuSans-32"/>
     <path d="M 31.78125 34.625 
Q 24.75 34.625 20.71875 30.859375 
Q 16.703125 27.09375 16.703125 20.515625 
Q 16.703125 13.921875 20.71875 10.15625 
Q 24.75 6.390625 31.78125 6.390625 
Q 38.8125 6.390625 42.859375 10.171875 
Q 46.921875 13.96875 46.921875 20.515625 
Q 46.921875 27.09375 42.890625 30.859375 
Q 38.875 34.625 31.78125 34.625 
z
M 21.921875 38.8125 
Q 15.578125 40.375 12.03125 44.71875 
Q 8.5 49.078125 8.5 55.328125 
Q 8.5 64.0625 14.71875 69.140625 
Q 20.953125 74.21875 31.78125 74.21875 
Q 42.671875 74.21875 48.875 69.140625 
Q 55.078125 64.0625 55.078125 55.328125 
Q 55.078125 49.078125 51.53125 44.71875 
Q 48 40.375 41.703125 38.8125 
Q 48.828125 37.15625 52.796875 32.3125 
Q 56.78125 27.484375 56.78125 20.515625 
Q 56.78125 9.90625 50.3125 4.234375 
Q 43.84375 -1.421875 31.78125 -1.421875 
Q 19.734375 -1.421875 13.25 4.234375 
Q 6.78125 9.90625 6.78125 20.515625 
Q 6.78125 27.484375 10.78125 32.3125 
Q 14.796875 37.15625 21.921875 38.8125 
z
M 18.3125 54.390625 
Q 18.3125 48.734375 21.84375 45.5625 
Q 25.390625 42.390625 31.78125 42.390625 
Q 38.140625 42.390625 41.71875 45.5625 
Q 45.3125 48.734375 45.3125 54.390625 
Q 45.3125 60.0625 41.71875 63.234375 
Q 38.140625 66.40625 31.78125 66.40625 
Q 25.390625 66.40625 21.84375 63.234375 
Q 18.3125 60.0625 18.3125 54.390625 
z
" id="DejaVuSans-38"/>
     <path d="M 54.890625 54.6875 
L 35.109375 28.078125 
L 55.90625 0 
L 45.3125 0 
L 29.390625 21.484375 
L 13.484375 0 
L 2.875 0 
L 24.125 28.609375 
L 4.6875 54.6875 
L 15.28125 54.6875 
L 29.78125 35.203125 
L 44.28125 54.6875 
z
" id="DejaVuSans-78"/>
    </defs>
    <g transform="translate(52.205455 125.538811)scale(0.08 -0.08)">
     <use xlink:href="#DejaVuSans-31"/>
     <use x="63.623047" xlink:href="#DejaVuSans-40"/>
     <use x="163.623047" xlink:href="#DejaVuSans-32"/>
     <use x="227.246094" xlink:href="#DejaVuSans-38"/>
     <use x="290.869141" xlink:href="#DejaVuSans-78"/>
     <use x="350.048828" xlink:href="#DejaVuSans-32"/>
     <use x="413.671875" xlink:href="#DejaVuSans-38"/>
    </g>
   </g>
   <g id="text_2">
    <!-- Feature -->
    <defs>
     <path d="M 9.8125 72.90625 
L 51.703125 72.90625 
L 51.703125 64.59375 
L 19.671875 64.59375 
L 19.671875 43.109375 
L 48.578125 43.109375 
L 48.578125 34.8125 
L 19.671875 34.8125 
L 19.671875 0 
L 9.8125 0 
z
" id="DejaVuSans-46"/>
     <path d="M 56.203125 29.59375 
L 56.203125 25.203125 
L 14.890625 25.203125 
Q 15.484375 15.921875 20.484375 11.0625 
Q 25.484375 6.203125 34.421875 6.203125 
Q 39.59375 6.203125 44.453125 7.46875 
Q 49.3125 8.734375 54.109375 11.28125 
L 54.109375 2.78125 
Q 49.265625 0.734375 44.1875 -0.34375 
Q 39.109375 -1.421875 33.890625 -1.421875 
Q 20.796875 -1.421875 13.15625 6.1875 
Q 5.515625 13.8125 5.515625 26.8125 
Q 5.515625 40.234375 12.765625 48.109375 
Q 20.015625 56 32.328125 56 
Q 43.359375 56 49.78125 48.890625 
Q 56.203125 41.796875 56.203125 29.59375 
z
M 47.21875 32.234375 
Q 47.125 39.59375 43.09375 43.984375 
Q 39.0625 48.390625 32.421875 48.390625 
Q 24.90625 48.390625 20.390625 44.140625 
Q 15.875 39.890625 15.1875 32.171875 
z
" id="DejaVuSans-65"/>
     <path d="M 34.28125 27.484375 
Q 23.390625 27.484375 19.1875 25 
Q 14.984375 22.515625 14.984375 16.5 
Q 14.984375 11.71875 18.140625 8.90625 
Q 21.296875 6.109375 26.703125 6.109375 
Q 34.1875 6.109375 38.703125 11.40625 
Q 43.21875 16.703125 43.21875 25.484375 
L 43.21875 27.484375 
z
M 52.203125 31.203125 
L 52.203125 0 
L 43.21875 0 
L 43.21875 8.296875 
Q 40.140625 3.328125 35.546875 0.953125 
Q 30.953125 -1.421875 24.3125 -1.421875 
Q 15.921875 -1.421875 10.953125 3.296875 
Q 6 8.015625 6 15.921875 
Q 6 25.140625 12.171875 29.828125 
Q 18.359375 34.515625 30.609375 34.515625 
L 43.21875 34.515625 
L 43.21875 35.40625 
Q 43.21875 41.609375 39.140625 45 
Q 35.0625 48.390625 27.6875 48.390625 
Q 23 48.390625 18.546875 47.265625 
Q 14.109375 46.140625 10.015625 43.890625 
L 10.015625 52.203125 
Q 14.9375 54.109375 19.578125 55.046875 
Q 24.21875 56 28.609375 56 
Q 40.484375 56 46.34375 49.84375 
Q 52.203125 43.703125 52.203125 31.203125 
z
" id="DejaVuSans-61"/>
     <path d="M 41.109375 46.296875 
Q 39.59375 47.171875 37.8125 47.578125 
Q 36.03125 48 33.890625 48 
Q 26.265625 48 22.1875 43.046875 
Q 18.109375 38.09375 18.109375 28.8125 
L 18.109375 0 
L 9.078125 0 
L 9.078125 54.6875 
L 18.109375 54.6875 
L 18.109375 46.1875 
Q 20.953125 51.171875 25.484375 53.578125 
Q 30.03125 56 36.53125 56 
Q 37.453125 56 38.578125 55.875 
Q 39.703125 55.765625 41.0625 55.515625 
z
" id="DejaVuSans-72"/>
    </defs>
    <g transform="translate(109.32993 107.622311)scale(0.08 -0.08)">
     <use xlink:href="#DejaVuSans-46"/>
     <use x="57.441406" xlink:href="#DejaVuSans-65"/>
     <use x="118.964844" xlink:href="#DejaVuSans-61"/>
     <use x="180.244141" xlink:href="#DejaVuSans-74"/>
     <use x="219.453125" xlink:href="#DejaVuSans-75"/>
     <use x="282.832031" xlink:href="#DejaVuSans-72"/>
     <use x="323.914062" xlink:href="#DejaVuSans-65"/>
    </g>
    <!-- maps -->
    <defs>
     <path d="M 52 44.1875 
Q 55.375 50.25 60.0625 53.125 
Q 64.75 56 71.09375 56 
Q 79.640625 56 84.28125 50.015625 
Q 88.921875 44.046875 88.921875 33.015625 
L 88.921875 0 
L 79.890625 0 
L 79.890625 32.71875 
Q 79.890625 40.578125 77.09375 44.375 
Q 74.3125 48.1875 68.609375 48.1875 
Q 61.625 48.1875 57.5625 43.546875 
Q 53.515625 38.921875 53.515625 30.90625 
L 53.515625 0 
L 44.484375 0 
L 44.484375 32.71875 
Q 44.484375 40.625 41.703125 44.40625 
Q 38.921875 48.1875 33.109375 48.1875 
Q 26.21875 48.1875 22.15625 43.53125 
Q 18.109375 38.875 18.109375 30.90625 
L 18.109375 0 
L 9.078125 0 
L 9.078125 54.6875 
L 18.109375 54.6875 
L 18.109375 46.1875 
Q 21.1875 51.21875 25.484375 53.609375 
Q 29.78125 56 35.6875 56 
Q 41.65625 56 45.828125 52.96875 
Q 50 49.953125 52 44.1875 
z
" id="DejaVuSans-6d"/>
    </defs>
    <g transform="translate(109.32993 116.580561)scale(0.08 -0.08)">
     <use xlink:href="#DejaVuSans-6d"/>
     <use x="97.412109" xlink:href="#DejaVuSans-61"/>
     <use x="158.691406" xlink:href="#DejaVuSans-70"/>
     <use x="222.167969" xlink:href="#DejaVuSans-73"/>
    </g>
    <!-- 32@28x28 -->
    <defs>
     <path d="M 40.578125 39.3125 
Q 47.65625 37.796875 51.625 33 
Q 55.609375 28.21875 55.609375 21.1875 
Q 55.609375 10.40625 48.1875 4.484375 
Q 40.765625 -1.421875 27.09375 -1.421875 
Q 22.515625 -1.421875 17.65625 -0.515625 
Q 12.796875 0.390625 7.625 2.203125 
L 7.625 11.71875 
Q 11.71875 9.328125 16.59375 8.109375 
Q 21.484375 6.890625 26.8125 6.890625 
Q 36.078125 6.890625 40.9375 10.546875 
Q 45.796875 14.203125 45.796875 21.1875 
Q 45.796875 27.640625 41.28125 31.265625 
Q 36.765625 34.90625 28.71875 34.90625 
L 20.21875 34.90625 
L 20.21875 43.015625 
L 29.109375 43.015625 
Q 36.375 43.015625 40.234375 45.921875 
Q 44.09375 48.828125 44.09375 54.296875 
Q 44.09375 59.90625 40.109375 62.90625 
Q 36.140625 65.921875 28.71875 65.921875 
Q 24.65625 65.921875 20.015625 65.03125 
Q 15.375 64.15625 9.8125 62.3125 
L 9.8125 71.09375 
Q 15.4375 72.65625 20.34375 73.4375 
Q 25.25 74.21875 29.59375 74.21875 
Q 40.828125 74.21875 47.359375 69.109375 
Q 53.90625 64.015625 53.90625 55.328125 
Q 53.90625 49.265625 50.4375 45.09375 
Q 46.96875 40.921875 40.578125 39.3125 
z
" id="DejaVuSans-33"/>
    </defs>
    <g transform="translate(109.32993 125.538811)scale(0.08 -0.08)">
     <use xlink:href="#DejaVuSans-33"/>
     <use x="63.623047" xlink:href="#DejaVuSans-32"/>
     <use x="127.246094" xlink:href="#DejaVuSans-40"/>
     <use x="227.246094" xlink:href="#DejaVuSans-32"/>
     <use x="290.869141" xlink:href="#DejaVuSans-38"/>
     <use x="354.492188" xlink:href="#DejaVuSans-78"/>
     <use x="413.671875" xlink:href="#DejaVuSans-32"/>
     <use x="477.294922" xlink:href="#DejaVuSans-38"/>
    </g>
   </g>
   <g id="text_3">
    <!-- Feature -->
    <g transform="translate(166.454406 107.622311)scale(0.08 -0.08)">
     <use xlink:href="#DejaVuSans-46"/>
     <use x="57.441406" xlink:href="#DejaVuSans-65"/>
     <use x="118.964844" xlink:href="#DejaVuSans-61"/>
     <use x="180.244141" xlink:href="#DejaVuSans-74"/>
     <use x="219.453125" xlink:href="#DejaVuSans-75"/>
     <use x="282.832031" xlink:href="#DejaVuSans-72"/>
     <use x="323.914062" xlink:href="#DejaVuSans-65"/>
    </g>
    <!-- maps -->
    <g transform="translate(166.454406 116.580561)scale(0.08 -0.08)">
     <use xlink:href="#DejaVuSans-6d"/>
     <use x="97.412109" xlink:href="#DejaVuSans-61"/>
     <use x="158.691406" xlink:href="#DejaVuSans-70"/>
     <use x="222.167969" xlink:href="#DejaVuSans-73"/>
    </g>
    <!-- 32@14x14 -->
    <defs>
     <path d="M 37.796875 64.3125 
L 12.890625 25.390625 
L 37.796875 25.390625 
z
M 35.203125 72.90625 
L 47.609375 72.90625 
L 47.609375 25.390625 
L 58.015625 25.390625 
L 58.015625 17.1875 
L 47.609375 17.1875 
L 47.609375 0 
L 37.796875 0 
L 37.796875 17.1875 
L 4.890625 17.1875 
L 4.890625 26.703125 
z
" id="DejaVuSans-34"/>
    </defs>
    <g transform="translate(166.454406 125.538811)scale(0.08 -0.08)">
     <use xlink:href="#DejaVuSans-33"/>
     <use x="63.623047" xlink:href="#DejaVuSans-32"/>
     <use x="127.246094" xlink:href="#DejaVuSans-40"/>
     <use x="227.246094" xlink:href="#DejaVuSans-31"/>
     <use x="290.869141" xlink:href="#DejaVuSans-34"/>
     <use x="354.492188" xlink:href="#DejaVuSans-78"/>
     <use x="413.671875" xlink:href="#DejaVuSans-31"/>
     <use x="477.294922" xlink:href="#DejaVuSans-34"/>
    </g>
   </g>
   <g id="text_4">
    <!-- Feature -->
    <g transform="translate(223.578881 107.622311)scale(0.08 -0.08)">
     <use xlink:href="#DejaVuSans-46"/>
     <use x="57.441406" xlink:href="#DejaVuSans-65"/>
     <use x="118.964844" xlink:href="#DejaVuSans-61"/>
     <use x="180.244141" xlink:href="#DejaVuSans-74"/>
     <use x="219.453125" xlink:href="#DejaVuSans-75"/>
     <use x="282.832031" xlink:href="#DejaVuSans-72"/>
     <use x="323.914062" xlink:href="#DejaVuSans-65"/>
    </g>
    <!-- maps -->
    <g transform="translate(223.578881 116.580561)scale(0.08 -0.08)">
     <use xlink:href="#DejaVuSans-6d"/>
     <use x="97.412109" xlink:href="#DejaVuSans-61"/>
     <use x="158.691406" xlink:href="#DejaVuSans-70"/>
     <use x="222.167969" xlink:href="#DejaVuSans-73"/>
    </g>
    <!-- 32@14x14 -->
    <g transform="translate(223.578881 125.538811)scale(0.08 -0.08)">
     <use xlink:href="#DejaVuSans-33"/>
     <use x="63.623047" xlink:href="#DejaVuSans-32"/>
     <use x="127.246094" xlink:href="#DejaVuSans-40"/>
     <use x="227.246094" xlink:href="#DejaVuSans-31"/>
     <use x="290.869141" xlink:href="#DejaVuSans-34"/>
     <use x="354.492188" xlink:href="#DejaVuSans-78"/>
     <use x="413.671875" xlink:href="#DejaVuSans-31"/>
     <use x="477.294922" xlink:href="#DejaVuSans-34"/>
    </g>
   </g>
   <g id="text_5">
    <!-- Feature -->
    <g transform="translate(280.703357 107.622311)scale(0.08 -0.08)">
     <use xlink:href="#DejaVuSans-46"/>
     <use x="57.441406" xlink:href="#DejaVuSans-65"/>
     <use x="118.964844" xlink:href="#DejaVuSans-61"/>
     <use x="180.244141" xlink:href="#DejaVuSans-74"/>
     <use x="219.453125" xlink:href="#DejaVuSans-75"/>
     <use x="282.832031" xlink:href="#DejaVuSans-72"/>
     <use x="323.914062" xlink:href="#DejaVuSans-65"/>
    </g>
    <!-- maps -->
    <g transform="translate(280.703357 116.580561)scale(0.08 -0.08)">
     <use xlink:href="#DejaVuSans-6d"/>
     <use x="97.412109" xlink:href="#DejaVuSans-61"/>
     <use x="158.691406" xlink:href="#DejaVuSans-70"/>
     <use x="222.167969" xlink:href="#DejaVuSans-73"/>
    </g>
    <!-- 64@7x7 -->
    <defs>
     <path d="M 33.015625 40.375 
Q 26.375 40.375 22.484375 35.828125 
Q 18.609375 31.296875 18.609375 23.390625 
Q 18.609375 15.53125 22.484375 10.953125 
Q 26.375 6.390625 33.015625 6.390625 
Q 39.65625 6.390625 43.53125 10.953125 
Q 47.40625 15.53125 47.40625 23.390625 
Q 47.40625 31.296875 43.53125 35.828125 
Q 39.65625 40.375 33.015625 40.375 
z
M 52.59375 71.296875 
L 52.59375 62.3125 
Q 48.875 64.0625 45.09375 64.984375 
Q 41.3125 65.921875 37.59375 65.921875 
Q 27.828125 65.921875 22.671875 59.328125 
Q 17.53125 52.734375 16.796875 39.40625 
Q 19.671875 43.65625 24.015625 45.921875 
Q 28.375 48.1875 33.59375 48.1875 
Q 44.578125 48.1875 50.953125 41.515625 
Q 57.328125 34.859375 57.328125 23.390625 
Q 57.328125 12.15625 50.6875 5.359375 
Q 44.046875 -1.421875 33.015625 -1.421875 
Q 20.359375 -1.421875 13.671875 8.265625 
Q 6.984375 17.96875 6.984375 36.375 
Q 6.984375 53.65625 15.1875 63.9375 
Q 23.390625 74.21875 37.203125 74.21875 
Q 40.921875 74.21875 44.703125 73.484375 
Q 48.484375 72.75 52.59375 71.296875 
z
" id="DejaVuSans-36"/>
     <path d="M 8.203125 72.90625 
L 55.078125 72.90625 
L 55.078125 68.703125 
L 28.609375 0 
L 18.3125 0 
L 43.21875 64.59375 
L 8.203125 64.59375 
z
" id="DejaVuSans-37"/>
    </defs>
    <g transform="translate(280.703357 125.538811)scale(0.08 -0.08)">
     <use xlink:href="#DejaVuSans-36"/>
     <use x="63.623047" xlink:href="#DejaVuSans-34"/>
     <use x="127.246094" xlink:href="#DejaVuSans-40"/>
     <use x="227.246094" xlink:href="#DejaVuSans-37"/>
     <use x="290.869141" xlink:href="#DejaVuSans-78"/>
     <use x="350.048828" xlink:href="#DejaVuSans-37"/>
    </g>
   </g>
   <g id="text_6">
    <!-- Convolution -->
    <defs>
     <path d="M 64.40625 67.28125 
L 64.40625 56.890625 
Q 59.421875 61.53125 53.78125 63.8125 
Q 48.140625 66.109375 41.796875 66.109375 
Q 29.296875 66.109375 22.65625 58.46875 
Q 16.015625 50.828125 16.015625 36.375 
Q 16.015625 21.96875 22.65625 14.328125 
Q 29.296875 6.6875 41.796875 6.6875 
Q 48.140625 6.6875 53.78125 8.984375 
Q 59.421875 11.28125 64.40625 15.921875 
L 64.40625 5.609375 
Q 59.234375 2.09375 53.4375 0.328125 
Q 47.65625 -1.421875 41.21875 -1.421875 
Q 24.65625 -1.421875 15.125 8.703125 
Q 5.609375 18.84375 5.609375 36.375 
Q 5.609375 53.953125 15.125 64.078125 
Q 24.65625 74.21875 41.21875 74.21875 
Q 47.75 74.21875 53.53125 72.484375 
Q 59.328125 70.75 64.40625 67.28125 
z
" id="DejaVuSans-43"/>
     <path d="M 30.609375 48.390625 
Q 23.390625 48.390625 19.1875 42.75 
Q 14.984375 37.109375 14.984375 27.296875 
Q 14.984375 17.484375 19.15625 11.84375 
Q 23.34375 6.203125 30.609375 6.203125 
Q 37.796875 6.203125 41.984375 11.859375 
Q 46.1875 17.53125 46.1875 27.296875 
Q 46.1875 37.015625 41.984375 42.703125 
Q 37.796875 48.390625 30.609375 48.390625 
z
M 30.609375 56 
Q 42.328125 56 49.015625 48.375 
Q 55.71875 40.765625 55.71875 27.296875 
Q 55.71875 13.875 49.015625 6.21875 
Q 42.328125 -1.421875 30.609375 -1.421875 
Q 18.84375 -1.421875 12.171875 6.21875 
Q 5.515625 13.875 5.515625 27.296875 
Q 5.515625 40.765625 12.171875 48.375 
Q 18.84375 56 30.609375 56 
z
" id="DejaVuSans-6f"/>
     <path d="M 2.984375 54.6875 
L 12.5 54.6875 
L 29.59375 8.796875 
L 46.6875 54.6875 
L 56.203125 54.6875 
L 35.6875 0 
L 23.484375 0 
z
" id="DejaVuSans-76"/>
     <path d="M 9.421875 75.984375 
L 18.40625 75.984375 
L 18.40625 0 
L 9.421875 0 
z
" id="DejaVuSans-6c"/>
     <path d="M 9.421875 54.6875 
L 18.40625 54.6875 
L 18.40625 0 
L 9.421875 0 
z
M 9.421875 75.984375 
L 18.40625 75.984375 
L 18.40625 64.59375 
L 9.421875 64.59375 
z
" id="DejaVuSans-69"/>
    </defs>
    <g transform="translate(89.336364 215.120281)scale(0.08 -0.08)">
     <use xlink:href="#DejaVuSans-43"/>
     <use x="69.824219" xlink:href="#DejaVuSans-6f"/>
     <use x="131.005859" xlink:href="#DejaVuSans-6e"/>
     <use x="194.384766" xlink:href="#DejaVuSans-76"/>
     <use x="253.564453" xlink:href="#DejaVuSans-6f"/>
     <use x="314.746094" xlink:href="#DejaVuSans-6c"/>
     <use x="342.529297" xlink:href="#DejaVuSans-75"/>
     <use x="405.908203" xlink:href="#DejaVuSans-74"/>
     <use x="445.117188" xlink:href="#DejaVuSans-69"/>
     <use x="472.900391" xlink:href="#DejaVuSans-6f"/>
     <use x="534.082031" xlink:href="#DejaVuSans-6e"/>
    </g>
    <!-- 5x5 kernel -->
    <defs>
     <path d="M 10.796875 72.90625 
L 49.515625 72.90625 
L 49.515625 64.59375 
L 19.828125 64.59375 
L 19.828125 46.734375 
Q 21.96875 47.46875 24.109375 47.828125 
Q 26.265625 48.1875 28.421875 48.1875 
Q 40.625 48.1875 47.75 41.5 
Q 54.890625 34.8125 54.890625 23.390625 
Q 54.890625 11.625 47.5625 5.09375 
Q 40.234375 -1.421875 26.90625 -1.421875 
Q 22.3125 -1.421875 17.546875 -0.640625 
Q 12.796875 0.140625 7.71875 1.703125 
L 7.71875 11.625 
Q 12.109375 9.234375 16.796875 8.0625 
Q 21.484375 6.890625 26.703125 6.890625 
Q 35.15625 6.890625 40.078125 11.328125 
Q 45.015625 15.765625 45.015625 23.390625 
Q 45.015625 31 40.078125 35.4375 
Q 35.15625 39.890625 26.703125 39.890625 
Q 22.75 39.890625 18.8125 39.015625 
Q 14.890625 38.140625 10.796875 36.28125 
z
" id="DejaVuSans-35"/>
     <path id="DejaVuSans-20"/>
     <path d="M 9.078125 75.984375 
L 18.109375 75.984375 
L 18.109375 31.109375 
L 44.921875 54.6875 
L 56.390625 54.6875 
L 27.390625 29.109375 
L 57.625 0 
L 45.90625 0 
L 18.109375 26.703125 
L 18.109375 0 
L 9.078125 0 
z
" id="DejaVuSans-6b"/>
    </defs>
    <g transform="translate(89.336364 224.078531)scale(0.08 -0.08)">
     <use xlink:href="#DejaVuSans-35"/>
     <use x="63.623047" xlink:href="#DejaVuSans-78"/>
     <use x="122.802734" xlink:href="#DejaVuSans-35"/>
     <use x="186.425781" xlink:href="#DejaVuSans-20"/>
     <use x="218.212891" xlink:href="#DejaVuSans-6b"/>
     <use x="276.076172" xlink:href="#DejaVuSans-65"/>
     <use x="337.599609" xlink:href="#DejaVuSans-72"/>
     <use x="378.697266" xlink:href="#DejaVuSans-6e"/>
     <use x="442.076172" xlink:href="#DejaVuSans-65"/>
     <use x="503.599609" xlink:href="#DejaVuSans-6c"/>
    </g>
   </g>
   <g id="text_7">
    <!-- Max-pooling -->
    <defs>
     <path d="M 9.8125 72.90625 
L 24.515625 72.90625 
L 43.109375 23.296875 
L 61.8125 72.90625 
L 76.515625 72.90625 
L 76.515625 0 
L 66.890625 0 
L 66.890625 64.015625 
L 48.09375 14.015625 
L 38.1875 14.015625 
L 19.390625 64.015625 
L 19.390625 0 
L 9.8125 0 
z
" id="DejaVuSans-4d"/>
     <path d="M 4.890625 31.390625 
L 31.203125 31.390625 
L 31.203125 23.390625 
L 4.890625 23.390625 
z
" id="DejaVuSans-2d"/>
     <path d="M 45.40625 27.984375 
Q 45.40625 37.75 41.375 43.109375 
Q 37.359375 48.484375 30.078125 48.484375 
Q 22.859375 48.484375 18.828125 43.109375 
Q 14.796875 37.75 14.796875 27.984375 
Q 14.796875 18.265625 18.828125 12.890625 
Q 22.859375 7.515625 30.078125 7.515625 
Q 37.359375 7.515625 41.375 12.890625 
Q 45.40625 18.265625 45.40625 27.984375 
z
M 54.390625 6.78125 
Q 54.390625 -7.171875 48.1875 -13.984375 
Q 42 -20.796875 29.203125 -20.796875 
Q 24.46875 -20.796875 20.265625 -20.09375 
Q 16.0625 -19.390625 12.109375 -17.921875 
L 12.109375 -9.1875 
Q 16.0625 -11.328125 19.921875 -12.34375 
Q 23.78125 -13.375 27.78125 -13.375 
Q 36.625 -13.375 41.015625 -8.765625 
Q 45.40625 -4.15625 45.40625 5.171875 
L 45.40625 9.625 
Q 42.625 4.78125 38.28125 2.390625 
Q 33.9375 0 27.875 0 
Q 17.828125 0 11.671875 7.65625 
Q 5.515625 15.328125 5.515625 27.984375 
Q 5.515625 40.671875 11.671875 48.328125 
Q 17.828125 56 27.875 56 
Q 33.9375 56 38.28125 53.609375 
Q 42.625 51.21875 45.40625 46.390625 
L 45.40625 54.6875 
L 54.390625 54.6875 
z
" id="DejaVuSans-67"/>
    </defs>
    <g transform="translate(146.460839 215.120281)scale(0.08 -0.08)">
     <use xlink:href="#DejaVuSans-4d"/>
     <use x="86.279297" xlink:href="#DejaVuSans-61"/>
     <use x="147.558594" xlink:href="#DejaVuSans-78"/>
     <use x="206.738281" xlink:href="#DejaVuSans-2d"/>
     <use x="242.822266" xlink:href="#DejaVuSans-70"/>
     <use x="306.298828" xlink:href="#DejaVuSans-6f"/>
     <use x="367.480469" xlink:href="#DejaVuSans-6f"/>
     <use x="428.662109" xlink:href="#DejaVuSans-6c"/>
     <use x="456.445312" xlink:href="#DejaVuSans-69"/>
     <use x="484.228516" xlink:href="#DejaVuSans-6e"/>
     <use x="547.607422" xlink:href="#DejaVuSans-67"/>
    </g>
    <!-- 2x2 kernel -->
    <g transform="translate(146.460839 224.078531)scale(0.08 -0.08)">
     <use xlink:href="#DejaVuSans-32"/>
     <use x="63.623047" xlink:href="#DejaVuSans-78"/>
     <use x="122.802734" xlink:href="#DejaVuSans-32"/>
     <use x="186.425781" xlink:href="#DejaVuSans-20"/>
     <use x="218.212891" xlink:href="#DejaVuSans-6b"/>
     <use x="276.076172" xlink:href="#DejaVuSans-65"/>
     <use x="337.599609" xlink:href="#DejaVuSans-72"/>
     <use x="378.697266" xlink:href="#DejaVuSans-6e"/>
     <use x="442.076172" xlink:href="#DejaVuSans-65"/>
     <use x="503.599609" xlink:href="#DejaVuSans-6c"/>
    </g>
   </g>
   <g id="text_8">
    <!-- Convolution -->
    <g transform="translate(203.585315 215.120281)scale(0.08 -0.08)">
     <use xlink:href="#DejaVuSans-43"/>
     <use x="69.824219" xlink:href="#DejaVuSans-6f"/>
     <use x="131.005859" xlink:href="#DejaVuSans-6e"/>
     <use x="194.384766" xlink:href="#DejaVuSans-76"/>
     <use x="253.564453" xlink:href="#DejaVuSans-6f"/>
     <use x="314.746094" xlink:href="#DejaVuSans-6c"/>
     <use x="342.529297" xlink:href="#DejaVuSans-75"/>
     <use x="405.908203" xlink:href="#DejaVuSans-74"/>
     <use x="445.117188" xlink:href="#DejaVuSans-69"/>
     <use x="472.900391" xlink:href="#DejaVuSans-6f"/>
     <use x="534.082031" xlink:href="#DejaVuSans-6e"/>
    </g>
    <!-- 5x5 kernel -->
    <g transform="translate(203.585315 224.078531)scale(0.08 -0.08)">
     <use xlink:href="#DejaVuSans-35"/>
     <use x="63.623047" xlink:href="#DejaVuSans-78"/>
     <use x="122.802734" xlink:href="#DejaVuSans-35"/>
     <use x="186.425781" xlink:href="#DejaVuSans-20"/>
     <use x="218.212891" xlink:href="#DejaVuSans-6b"/>
     <use x="276.076172" xlink:href="#DejaVuSans-65"/>
     <use x="337.599609" xlink:href="#DejaVuSans-72"/>
     <use x="378.697266" xlink:href="#DejaVuSans-6e"/>
     <use x="442.076172" xlink:href="#DejaVuSans-65"/>
     <use x="503.599609" xlink:href="#DejaVuSans-6c"/>
    </g>
   </g>
   <g id="text_9">
    <!-- Max-pooling -->
    <g transform="translate(260.70979 215.120281)scale(0.08 -0.08)">
     <use xlink:href="#DejaVuSans-4d"/>
     <use x="86.279297" xlink:href="#DejaVuSans-61"/>
     <use x="147.558594" xlink:href="#DejaVuSans-78"/>
     <use x="206.738281" xlink:href="#DejaVuSans-2d"/>
     <use x="242.822266" xlink:href="#DejaVuSans-70"/>
     <use x="306.298828" xlink:href="#DejaVuSans-6f"/>
     <use x="367.480469" xlink:href="#DejaVuSans-6f"/>
     <use x="428.662109" xlink:href="#DejaVuSans-6c"/>
     <use x="456.445312" xlink:href="#DejaVuSans-69"/>
     <use x="484.228516" xlink:href="#DejaVuSans-6e"/>
     <use x="547.607422" xlink:href="#DejaVuSans-67"/>
    </g>
    <!-- 2x2 kernel -->
    <g transform="translate(260.70979 224.078531)scale(0.08 -0.08)">
     <use xlink:href="#DejaVuSans-32"/>
     <use x="63.623047" xlink:href="#DejaVuSans-78"/>
     <use x="122.802734" xlink:href="#DejaVuSans-32"/>
     <use x="186.425781" xlink:href="#DejaVuSans-20"/>
     <use x="218.212891" xlink:href="#DejaVuSans-6b"/>
     <use x="276.076172" xlink:href="#DejaVuSans-65"/>
     <use x="337.599609" xlink:href="#DejaVuSans-72"/>
     <use x="378.697266" xlink:href="#DejaVuSans-6e"/>
     <use x="442.076172" xlink:href="#DejaVuSans-65"/>
     <use x="503.599609" xlink:href="#DejaVuSans-6c"/>
    </g>
   </g>
   <g id="text_10">
    <!-- Hidden -->
    <defs>
     <path d="M 9.8125 72.90625 
L 19.671875 72.90625 
L 19.671875 43.015625 
L 55.515625 43.015625 
L 55.515625 72.90625 
L 65.375 72.90625 
L 65.375 0 
L 55.515625 0 
L 55.515625 34.71875 
L 19.671875 34.71875 
L 19.671875 0 
L 9.8125 0 
z
" id="DejaVuSans-48"/>
     <path d="M 45.40625 46.390625 
L 45.40625 75.984375 
L 54.390625 75.984375 
L 54.390625 0 
L 45.40625 0 
L 45.40625 8.203125 
Q 42.578125 3.328125 38.25 0.953125 
Q 33.9375 -1.421875 27.875 -1.421875 
Q 17.96875 -1.421875 11.734375 6.484375 
Q 5.515625 14.40625 5.515625 27.296875 
Q 5.515625 40.1875 11.734375 48.09375 
Q 17.96875 56 27.875 56 
Q 33.9375 56 38.25 53.625 
Q 42.578125 51.265625 45.40625 46.390625 
z
M 14.796875 27.296875 
Q 14.796875 17.390625 18.875 11.75 
Q 22.953125 6.109375 30.078125 6.109375 
Q 37.203125 6.109375 41.296875 11.75 
Q 45.40625 17.390625 45.40625 27.296875 
Q 45.40625 37.203125 41.296875 42.84375 
Q 37.203125 48.484375 30.078125 48.484375 
Q 22.953125 48.484375 18.875 42.84375 
Q 14.796875 37.203125 14.796875 27.296875 
z
" id="DejaVuSans-64"/>
    </defs>
    <g transform="translate(337.827832 107.622311)scale(0.08 -0.08)">
     <use xlink:href="#DejaVuSans-48"/>
     <use x="75.195312" xlink:href="#DejaVuSans-69"/>
     <use x="102.978516" xlink:href="#DejaVuSans-64"/>
     <use x="166.455078" xlink:href="#DejaVuSans-64"/>
     <use x="229.931641" xlink:href="#DejaVuSans-65"/>
     <use x="291.455078" xlink:href="#DejaVuSans-6e"/>
    </g>
    <!-- units -->
    <g transform="translate(337.827832 116.580561)scale(0.08 -0.08)">
     <use xlink:href="#DejaVuSans-75"/>
     <use x="63.378906" xlink:href="#DejaVuSans-6e"/>
     <use x="126.757812" xlink:href="#DejaVuSans-69"/>
     <use x="154.541016" xlink:href="#DejaVuSans-74"/>
     <use x="193.75" xlink:href="#DejaVuSans-73"/>
    </g>
    <!-- 1024 -->
    <defs>
     <path d="M 31.78125 66.40625 
Q 24.171875 66.40625 20.328125 58.90625 
Q 16.5 51.421875 16.5 36.375 
Q 16.5 21.390625 20.328125 13.890625 
Q 24.171875 6.390625 31.78125 6.390625 
Q 39.453125 6.390625 43.28125 13.890625 
Q 47.125 21.390625 47.125 36.375 
Q 47.125 51.421875 43.28125 58.90625 
Q 39.453125 66.40625 31.78125 66.40625 
z
M 31.78125 74.21875 
Q 44.046875 74.21875 50.515625 64.515625 
Q 56.984375 54.828125 56.984375 36.375 
Q 56.984375 17.96875 50.515625 8.265625 
Q 44.046875 -1.421875 31.78125 -1.421875 
Q 19.53125 -1.421875 13.0625 8.265625 
Q 6.59375 17.96875 6.59375 36.375 
Q 6.59375 54.828125 13.0625 64.515625 
Q 19.53125 74.21875 31.78125 74.21875 
z
" id="DejaVuSans-30"/>
    </defs>
    <g transform="translate(337.827832 125.538811)scale(0.08 -0.08)">
     <use xlink:href="#DejaVuSans-31"/>
     <use x="63.623047" xlink:href="#DejaVuSans-30"/>
     <use x="127.246094" xlink:href="#DejaVuSans-32"/>
     <use x="190.869141" xlink:href="#DejaVuSans-34"/>
    </g>
   </g>
   <g id="text_11">
    <!-- Outputs -->
    <defs>
     <path d="M 39.40625 66.21875 
Q 28.65625 66.21875 22.328125 58.203125 
Q 16.015625 50.203125 16.015625 36.375 
Q 16.015625 22.609375 22.328125 14.59375 
Q 28.65625 6.59375 39.40625 6.59375 
Q 50.140625 6.59375 56.421875 14.59375 
Q 62.703125 22.609375 62.703125 36.375 
Q 62.703125 50.203125 56.421875 58.203125 
Q 50.140625 66.21875 39.40625 66.21875 
z
M 39.40625 74.21875 
Q 54.734375 74.21875 63.90625 63.9375 
Q 73.09375 53.65625 73.09375 36.375 
Q 73.09375 19.140625 63.90625 8.859375 
Q 54.734375 -1.421875 39.40625 -1.421875 
Q 24.03125 -1.421875 14.8125 8.828125 
Q 5.609375 19.09375 5.609375 36.375 
Q 5.609375 53.65625 14.8125 63.9375 
Q 24.03125 74.21875 39.40625 74.21875 
z
" id="DejaVuSans-4f"/>
    </defs>
    <g transform="translate(394.952308 116.580561)scale(0.08 -0.08)">
     <use xlink:href="#DejaVuSans-4f"/>
     <use x="78.710938" xlink:href="#DejaVuSans-75"/>
     <use x="142.089844" xlink:href="#DejaVuSans-74"/>
     <use x="181.298828" xlink:href="#DejaVuSans-70"/>
     <use x="244.775391" xlink:href="#DejaVuSans-75"/>
     <use x="308.154297" xlink:href="#DejaVuSans-74"/>
     <use x="347.363281" xlink:href="#DejaVuSans-73"/>
    </g>
    <!-- 10 -->
    <g transform="translate(394.952308 125.538811)scale(0.08 -0.08)">
     <use xlink:href="#DejaVuSans-31"/>
     <use x="63.623047" xlink:href="#DejaVuSans-30"/>
    </g>
   </g>
   <g id="text_12">
    <!-- Flatten -->
    <g transform="translate(323.546713 215.120281)scale(0.08 -0.08)">
     <use xlink:href="#DejaVuSans-46"/>
     <use x="57.519531" xlink:href="#DejaVuSans-6c"/>
     <use x="85.302734" xlink:href="#DejaVuSans-61"/>
     <use x="146.582031" xlink:href="#DejaVuSans-74"/>
     <use x="185.791016" xlink:href="#DejaVuSans-74"/>
     <use x="225" xlink:href="#DejaVuSans-65"/>
     <use x="286.523438" xlink:href="#DejaVuSans-6e"/>
    </g>
    <!--  -->
    <g transform="translate(323.546713 224.078531)scale(0.08 -0.08)"/>
   </g>
   <g id="text_13">
    <!-- Fully -->
    <defs>
     <path d="M 32.171875 -5.078125 
Q 28.375 -14.84375 24.75 -17.8125 
Q 21.140625 -20.796875 15.09375 -20.796875 
L 7.90625 -20.796875 
L 7.90625 -13.28125 
L 13.1875 -13.28125 
Q 16.890625 -13.28125 18.9375 -11.515625 
Q 21 -9.765625 23.484375 -3.21875 
L 25.09375 0.875 
L 2.984375 54.6875 
L 12.5 54.6875 
L 29.59375 11.921875 
L 46.6875 54.6875 
L 56.203125 54.6875 
z
" id="DejaVuSans-79"/>
    </defs>
    <g transform="translate(380.671189 215.120281)scale(0.08 -0.08)">
     <use xlink:href="#DejaVuSans-46"/>
     <use x="57.441406" xlink:href="#DejaVuSans-75"/>
     <use x="120.820312" xlink:href="#DejaVuSans-6c"/>
     <use x="148.603516" xlink:href="#DejaVuSans-6c"/>
     <use x="176.386719" xlink:href="#DejaVuSans-79"/>
    </g>
    <!-- connected -->
    <defs>
     <path d="M 48.78125 52.59375 
L 48.78125 44.1875 
Q 44.96875 46.296875 41.140625 47.34375 
Q 37.3125 48.390625 33.40625 48.390625 
Q 24.65625 48.390625 19.8125 42.84375 
Q 14.984375 37.3125 14.984375 27.296875 
Q 14.984375 17.28125 19.8125 11.734375 
Q 24.65625 6.203125 33.40625 6.203125 
Q 37.3125 6.203125 41.140625 7.25 
Q 44.96875 8.296875 48.78125 10.40625 
L 48.78125 2.09375 
Q 45.015625 0.34375 40.984375 -0.53125 
Q 36.96875 -1.421875 32.421875 -1.421875 
Q 20.0625 -1.421875 12.78125 6.34375 
Q 5.515625 14.109375 5.515625 27.296875 
Q 5.515625 40.671875 12.859375 48.328125 
Q 20.21875 56 33.015625 56 
Q 37.15625 56 41.109375 55.140625 
Q 45.0625 54.296875 48.78125 52.59375 
z
" id="DejaVuSans-63"/>
    </defs>
    <g transform="translate(380.671189 224.078531)scale(0.08 -0.08)">
     <use xlink:href="#DejaVuSans-63"/>
     <use x="54.980469" xlink:href="#DejaVuSans-6f"/>
     <use x="116.162109" xlink:href="#DejaVuSans-6e"/>
     <use x="179.541016" xlink:href="#DejaVuSans-6e"/>
     <use x="242.919922" xlink:href="#DejaVuSans-65"/>
     <use x="304.443359" xlink:href="#DejaVuSans-63"/>
     <use x="359.423828" xlink:href="#DejaVuSans-74"/>
     <use x="398.632812" xlink:href="#DejaVuSans-65"/>
     <use x="460.15625" xlink:href="#DejaVuSans-64"/>
    </g>
   </g>
  </g>
 </g>
 <defs>
  <clipPath id="p8844bc0d3c">
   <rect height="302.96" width="408.44" x="33.64" y="14.76"/>
  </clipPath>
 </defs>
</svg>
